<svg xmlns="http://www.w3.org/2000/svg" viewBox="0 0 889 429">
  <defs>
    <style>
      .a {
        fill: #ea5e18;
      }

      .b {
        fill: #418734;
      }
    </style>
  </defs>
  <path class="a" d="M889,214.4965c0,118.4709-96.01,214.4987-214.4319,214.4987H554.9466a162.429,162.429,0,0,0,17.8125-15.4045A158.2975,158.2975,0,0,0,619.4252,300.92h55.1429a86.4238,86.4238,0,0,0,0-172.8475H460.1237V.01H674.5681A214.4625,214.4625,0,0,1,889,214.4965Z"/>
  <path class="a" d="M214.4333,0H0V429H214.4333c118.4281,0,214.433-96.0348,214.433-214.5v0C428.8663,96.0348,332.8614,0,214.4333,0ZM300.83,214.5a86.41,86.41,0,0,1-86.3964,86.4233H128.0367V128.0766h86.3965A86.41,86.41,0,0,1,300.83,214.5Z"/>
  <path class="b" d="M588.165,159.3428V300.9139A128.0533,128.0533,0,0,1,460.13,428.9887V287.4177A128.0533,128.0533,0,0,1,588.165,159.3428Z"/>
</svg>
